<svg width="257" height="116" viewBox="0 0 257 116" fill="none" xmlns="http://www.w3.org/2000/svg">
<rect x="23.7455" y="42.3286" width="43.0465" height="15.9431" rx="7.97157" transform="rotate(-39.4097 23.7455 42.3286)" fill="#E82C1A"/>
<rect x="11.0687" y="73.2722" width="43.0465" height="15.9431" rx="7.97157" transform="rotate(-39.4097 11.0687 73.2722)" fill="#1570E1"/>
<circle cx="39.7798" cy="49.7882" r="15.9431" transform="rotate(-39.4097 39.7798 49.7882)" fill="#1AB7E8"/>
<mask id="mask0_25_48" style="mask-type:alpha" maskUnits="userSpaceOnUse" x="23" y="33" width="33" height="33">
<circle cx="39.7798" cy="49.7882" r="15.9431" transform="rotate(-39.4097 39.7798 49.7882)" fill="#EFAB28"/>
</mask>
<g mask="url(#mask0_25_48)">
<rect x="17.3401" y="47.5918" width="75.2516" height="15.9431" transform="rotate(-39.4097 17.3401 47.5918)" fill="#EFAB28"/>
</g>
<path d="M44.7333 82.0493V53.3773H49.9813L52.5413 54.6573C54.3333 54.3159 56.488 54.0173 59.0053 53.7613C61.5226 53.5053 64.4026 53.3773 67.6453 53.3773H70.8453C72.9786 53.3773 74.6213 53.6759 75.7733 54.2733C76.9253 54.8706 77.736 55.6173 78.2053 56.5133C78.7173 57.4093 79.016 58.3266 79.1013 59.2653C79.2293 60.1613 79.2933 60.9293 79.2933 61.5693V82.0493H71.4853V61.4413C71.4853 59.7346 70.4613 58.8813 68.4133 58.8813H54.4613C53.6506 58.8813 53.1173 58.9666 52.8613 59.1373C52.648 59.2653 52.5413 59.6493 52.5413 60.2893V82.0493H44.7333ZM94.4788 82.0493C92.3455 82.0493 90.7028 81.7719 89.5508 81.2173C88.3988 80.6626 87.5668 79.9586 87.0548 79.1053C86.5855 78.2519 86.2868 77.3559 86.1588 76.4173C86.0735 75.4786 86.0308 74.6253 86.0308 73.8573V61.5693C86.0308 60.9293 86.0735 60.1613 86.1588 59.2653C86.2868 58.3266 86.5855 57.4093 87.0548 56.5133C87.5668 55.6173 88.3988 54.8706 89.5508 54.2733C90.7455 53.6759 92.3881 53.3773 94.4788 53.3773H108.239C111.055 53.3773 113.252 53.6546 114.831 54.2093C116.452 54.7213 117.583 55.5746 118.223 56.7693C118.905 57.9639 119.247 59.5639 119.247 61.5693V71.0413H108.047C104.207 71.0413 101.071 70.9559 98.6388 70.7853C96.2495 70.6146 94.6495 70.5079 93.8388 70.4653V73.9853C93.7961 75.6919 94.8201 76.5453 96.9108 76.5453H100.175C102.479 76.5453 104.719 76.5239 106.895 76.4813C109.113 76.3959 111.14 76.3106 112.975 76.2253C114.809 76.0973 116.281 75.9906 117.391 75.9053L119.951 80.0653C119.951 81.3879 115.748 82.0493 107.343 82.0493H94.4788ZM93.8388 65.5373H111.439V61.4413C111.439 60.5879 111.332 59.9906 111.119 59.6493C110.948 59.3079 110.393 59.0946 109.455 59.0093C108.516 58.9239 106.916 58.8813 104.655 58.8813H96.9108C94.8628 58.8813 93.8388 59.7346 93.8388 61.4413V65.5373ZM123.158 82.0493L124.438 79.4893L135.51 67.6493L123.158 53.3773H132.886L140.694 63.2973H141.334L149.27 53.3773H158.998L157.974 55.4253L146.262 67.6493L158.998 82.0493H149.206L141.334 72.4493H140.694L132.886 82.0493H123.158ZM171.931 82.0493C169.841 82.0493 168.198 81.7719 167.003 81.2173C165.851 80.6626 165.019 79.9586 164.507 79.1053C164.038 78.2519 163.739 77.3559 163.611 76.4173C163.526 75.4786 163.483 74.6253 163.483 73.8573V53.3773H171.291V73.9853C171.249 74.9239 171.547 75.5853 172.187 75.9693C172.87 76.3533 173.595 76.5453 174.363 76.5453H187.035C187.974 76.5453 188.529 76.4599 188.699 76.2893C188.87 76.1186 188.955 75.5639 188.955 74.6253V53.3773H196.763V82.0493H191.515L189.083 80.7693C187.377 81.1106 185.35 81.4093 183.003 81.6653C180.699 81.9213 178.097 82.0493 175.195 82.0493H171.931ZM212.229 82.0493C210.095 82.0493 208.453 81.7719 207.301 81.2173C206.149 80.6626 205.317 79.9586 204.805 79.1053C204.335 78.2519 204.037 77.3559 203.909 76.4173C203.823 75.4786 203.781 74.6253 203.781 73.8573V61.5693C203.781 60.9293 203.823 60.1613 203.909 59.2653C204.037 58.3266 204.335 57.4093 204.805 56.5133C205.317 55.6173 206.149 54.8706 207.301 54.2733C208.495 53.6759 210.138 53.3773 212.229 53.3773H215.493C219.418 53.3773 222.575 53.4626 224.965 53.6333C227.397 53.7613 229.253 53.9106 230.533 54.0813V41.4733H238.341V82.0493H233.093L230.597 80.7693C228.805 81.0679 226.65 81.3666 224.133 81.6653C221.615 81.9213 218.714 82.0493 215.429 82.0493H212.229ZM214.661 76.5453H228.549C229.445 76.5453 229.999 76.4386 230.213 76.2253C230.426 76.0119 230.533 75.4786 230.533 74.6253V59.3293C229.082 59.2439 227.247 59.1586 225.029 59.0733C222.81 58.9453 220.442 58.8813 217.925 58.8813H214.661C212.613 58.8813 211.589 59.7346 211.589 61.4413V73.9853C211.589 75.6919 212.613 76.5453 214.661 76.5453Z" fill="#EBF0E9"/>
<path d="M174.89 104V96.9H175.59V104H174.89ZM181.082 103.75C181.028 103.77 180.945 103.807 180.832 103.86C180.718 103.913 180.582 103.96 180.422 104C180.262 104.04 180.088 104.06 179.902 104.06C179.708 104.06 179.525 104.023 179.352 103.95C179.185 103.877 179.052 103.767 178.952 103.62C178.852 103.467 178.802 103.28 178.802 103.06V99.33H178.082V98.79H178.802V97.03H179.482V98.79H180.682V99.33H179.482V102.87C179.495 103.057 179.562 103.197 179.682 103.29C179.808 103.383 179.952 103.43 180.112 103.43C180.298 103.43 180.468 103.4 180.622 103.34C180.775 103.273 180.868 103.227 180.902 103.2L181.082 103.75ZM182.803 98.79L182.973 97.72H182.733V96.7H183.393V97.72L183.143 98.79H182.803ZM187.252 104.1C186.825 104.1 186.428 104.03 186.062 103.89C185.695 103.75 185.378 103.537 185.112 103.25L185.392 102.77C185.685 103.043 185.978 103.243 186.272 103.37C186.572 103.49 186.888 103.55 187.222 103.55C187.628 103.55 187.958 103.47 188.212 103.31C188.465 103.143 188.592 102.907 188.592 102.6C188.592 102.393 188.528 102.237 188.402 102.13C188.282 102.017 188.105 101.927 187.872 101.86C187.645 101.787 187.372 101.71 187.052 101.63C186.692 101.53 186.388 101.427 186.142 101.32C185.902 101.207 185.718 101.067 185.592 100.9C185.472 100.727 185.412 100.503 185.412 100.23C185.412 99.89 185.495 99.61 185.662 99.39C185.835 99.1633 186.068 98.9933 186.362 98.88C186.662 98.76 186.995 98.7 187.362 98.7C187.762 98.7 188.115 98.7633 188.422 98.89C188.728 99.0167 188.978 99.1933 189.172 99.42L188.842 99.88C188.655 99.6667 188.432 99.51 188.172 99.41C187.918 99.3033 187.635 99.25 187.322 99.25C187.108 99.25 186.905 99.28 186.712 99.34C186.518 99.3933 186.358 99.4867 186.232 99.62C186.112 99.7467 186.052 99.9233 186.052 100.15C186.052 100.337 186.098 100.483 186.192 100.59C186.285 100.69 186.425 100.777 186.612 100.85C186.798 100.917 187.028 100.99 187.302 101.07C187.695 101.177 188.038 101.287 188.332 101.4C188.625 101.507 188.852 101.647 189.012 101.82C189.172 101.993 189.252 102.237 189.252 102.55C189.252 103.037 189.068 103.417 188.702 103.69C188.335 103.963 187.852 104.1 187.252 104.1ZM197.435 104.1C197.008 104.1 196.611 104.03 196.245 103.89C195.878 103.75 195.561 103.537 195.295 103.25L195.575 102.77C195.868 103.043 196.161 103.243 196.455 103.37C196.755 103.49 197.071 103.55 197.405 103.55C197.811 103.55 198.141 103.47 198.395 103.31C198.648 103.143 198.775 102.907 198.775 102.6C198.775 102.393 198.711 102.237 198.585 102.13C198.465 102.017 198.288 101.927 198.055 101.86C197.828 101.787 197.555 101.71 197.235 101.63C196.875 101.53 196.571 101.427 196.325 101.32C196.085 101.207 195.901 101.067 195.775 100.9C195.655 100.727 195.595 100.503 195.595 100.23C195.595 99.89 195.678 99.61 195.845 99.39C196.018 99.1633 196.251 98.9933 196.545 98.88C196.845 98.76 197.178 98.7 197.545 98.7C197.945 98.7 198.298 98.7633 198.605 98.89C198.911 99.0167 199.161 99.1933 199.355 99.42L199.025 99.88C198.838 99.6667 198.615 99.51 198.355 99.41C198.101 99.3033 197.818 99.25 197.505 99.25C197.291 99.25 197.088 99.28 196.895 99.34C196.701 99.3933 196.541 99.4867 196.415 99.62C196.295 99.7467 196.235 99.9233 196.235 100.15C196.235 100.337 196.281 100.483 196.375 100.59C196.468 100.69 196.608 100.777 196.795 100.85C196.981 100.917 197.211 100.99 197.485 101.07C197.878 101.177 198.221 101.287 198.515 101.4C198.808 101.507 199.035 101.647 199.195 101.82C199.355 101.993 199.435 102.237 199.435 102.55C199.435 103.037 199.251 103.417 198.885 103.69C198.518 103.963 198.035 104.1 197.435 104.1ZM201.959 104V98.79H202.639V104H201.959ZM201.959 97.7V96.7H202.639V97.7H201.959ZM213.286 104H212.606V101.09C212.606 100.483 212.51 100.037 212.316 99.75C212.123 99.4633 211.836 99.32 211.456 99.32C211.063 99.32 210.71 99.46 210.396 99.74C210.09 100.02 209.873 100.38 209.746 100.82V104H209.066V101.09C209.066 100.477 208.973 100.03 208.786 99.75C208.6 99.4633 208.313 99.32 207.926 99.32C207.54 99.32 207.19 99.4567 206.876 99.73C206.563 100.003 206.343 100.363 206.216 100.81V104H205.536V98.79H206.156V99.97C206.376 99.5633 206.656 99.25 206.996 99.03C207.343 98.81 207.726 98.7 208.146 98.7C208.58 98.7 208.93 98.8233 209.196 99.07C209.463 99.3167 209.626 99.64 209.686 100.04C209.926 99.6 210.213 99.2667 210.546 99.04C210.886 98.8133 211.27 98.7 211.696 98.7C211.99 98.7 212.236 98.7533 212.436 98.86C212.643 98.9667 212.806 99.12 212.926 99.32C213.053 99.5133 213.143 99.75 213.196 100.03C213.256 100.303 213.286 100.61 213.286 100.95V104ZM218.786 104.1C218.352 104.1 217.962 103.987 217.616 103.76C217.276 103.533 217.006 103.253 216.806 102.92V106.13H216.126V98.79H216.736V99.8C216.942 99.4733 217.219 99.21 217.566 99.01C217.912 98.8033 218.282 98.7 218.676 98.7C219.036 98.7 219.366 98.7767 219.666 98.93C219.966 99.0767 220.226 99.2767 220.446 99.53C220.666 99.7833 220.836 100.073 220.956 100.4C221.082 100.72 221.146 101.053 221.146 101.4C221.146 101.887 221.046 102.337 220.846 102.75C220.652 103.157 220.379 103.483 220.026 103.73C219.672 103.977 219.259 104.1 218.786 104.1ZM218.596 103.5C218.882 103.5 219.139 103.443 219.366 103.33C219.592 103.21 219.786 103.05 219.946 102.85C220.112 102.65 220.239 102.427 220.326 102.18C220.412 101.927 220.456 101.667 220.456 101.4C220.456 101.12 220.406 100.853 220.306 100.6C220.212 100.347 220.076 100.123 219.896 99.93C219.716 99.7367 219.509 99.5833 219.276 99.47C219.042 99.3567 218.789 99.3 218.516 99.3C218.342 99.3 218.162 99.3333 217.976 99.4C217.789 99.4667 217.609 99.5633 217.436 99.69C217.269 99.81 217.129 99.9467 217.016 100.1C216.902 100.253 216.832 100.417 216.806 100.59V102.19C216.912 102.437 217.056 102.66 217.236 102.86C217.416 103.053 217.622 103.21 217.856 103.33C218.096 103.443 218.342 103.5 218.596 103.5ZM223.728 96.7H224.408V102.82C224.408 103.08 224.454 103.25 224.548 103.33C224.641 103.41 224.754 103.45 224.888 103.45C225.008 103.45 225.128 103.437 225.248 103.41C225.368 103.383 225.471 103.357 225.558 103.33L225.678 103.88C225.551 103.933 225.394 103.977 225.208 104.01C225.028 104.043 224.871 104.06 224.738 104.06C224.431 104.06 224.184 103.97 223.998 103.79C223.818 103.61 223.728 103.363 223.728 103.05V96.7ZM230.072 104.1C229.699 104.1 229.352 104.03 229.032 103.89C228.712 103.743 228.436 103.547 228.202 103.3C227.969 103.047 227.786 102.757 227.652 102.43C227.526 102.103 227.462 101.753 227.462 101.38C227.462 100.893 227.572 100.447 227.792 100.04C228.019 99.6333 228.329 99.31 228.722 99.07C229.116 98.8233 229.562 98.7 230.062 98.7C230.576 98.7 231.022 98.8233 231.402 99.07C231.789 99.3167 232.092 99.6433 232.312 100.05C232.532 100.45 232.642 100.89 232.642 101.37C232.642 101.423 232.642 101.477 232.642 101.53C232.642 101.577 232.639 101.613 232.632 101.64H228.172C228.206 102.013 228.309 102.347 228.482 102.64C228.662 102.927 228.892 103.157 229.172 103.33C229.459 103.497 229.769 103.58 230.102 103.58C230.442 103.58 230.762 103.493 231.062 103.32C231.369 103.147 231.582 102.92 231.702 102.64L232.292 102.8C232.186 103.047 232.022 103.27 231.802 103.47C231.582 103.67 231.322 103.827 231.022 103.94C230.729 104.047 230.412 104.1 230.072 104.1ZM228.152 101.15H232.002C231.976 100.77 231.872 100.437 231.692 100.15C231.519 99.8633 231.289 99.64 231.002 99.48C230.722 99.3133 230.412 99.23 230.072 99.23C229.732 99.23 229.422 99.3133 229.142 99.48C228.862 99.64 228.632 99.8667 228.452 100.16C228.279 100.447 228.179 100.777 228.152 101.15Z" fill="#EBF0E9" fill-opacity="0.8"/>
</svg>
