<svg width="257" height="116" viewBox="0 0 257 116" fill="none" xmlns="http://www.w3.org/2000/svg">
<rect x="23.7455" y="42.3286" width="43.0465" height="15.9431" rx="7.97157" transform="rotate(-39.4097 23.7455 42.3286)" fill="#E82C1A"/>
<rect x="11.0687" y="73.2722" width="43.0465" height="15.9431" rx="7.97157" transform="rotate(-39.4097 11.0687 73.2722)" fill="#1570E1"/>
<circle cx="39.7798" cy="49.7882" r="15.9431" transform="rotate(-39.4097 39.7798 49.7882)" fill="#1AB7E8"/>
<mask id="mask0_19_25" style="mask-type:alpha" maskUnits="userSpaceOnUse" x="23" y="33" width="33" height="33">
<circle cx="39.7798" cy="49.7882" r="15.9431" transform="rotate(-39.4097 39.7798 49.7882)" fill="#EFAB28"/>
</mask>
<g mask="url(#mask0_19_25)">
<rect x="17.3401" y="47.5918" width="75.2516" height="15.9431" transform="rotate(-39.4097 17.3401 47.5918)" fill="#EFAB28"/>
</g>
<path d="M44.7333 82.0493V53.3773H49.9813L52.5413 54.6573C54.3333 54.3159 56.488 54.0173 59.0053 53.7613C61.5226 53.5053 64.4026 53.3773 67.6453 53.3773H70.8453C72.9786 53.3773 74.6213 53.6759 75.7733 54.2733C76.9253 54.8706 77.736 55.6173 78.2053 56.5133C78.7173 57.4093 79.016 58.3266 79.1013 59.2653C79.2293 60.1613 79.2933 60.9293 79.2933 61.5693V82.0493H71.4853V61.4413C71.4853 59.7346 70.4613 58.8813 68.4133 58.8813H54.4613C53.6506 58.8813 53.1173 58.9666 52.8613 59.1373C52.648 59.2653 52.5413 59.6493 52.5413 60.2893V82.0493H44.7333ZM94.4788 82.0493C92.3455 82.0493 90.7028 81.7719 89.5508 81.2173C88.3988 80.6626 87.5668 79.9586 87.0548 79.1053C86.5855 78.2519 86.2868 77.3559 86.1588 76.4173C86.0735 75.4786 86.0308 74.6253 86.0308 73.8573V61.5693C86.0308 60.9293 86.0735 60.1613 86.1588 59.2653C86.2868 58.3266 86.5855 57.4093 87.0548 56.5133C87.5668 55.6173 88.3988 54.8706 89.5508 54.2733C90.7455 53.6759 92.3881 53.3773 94.4788 53.3773H108.239C111.055 53.3773 113.252 53.6546 114.831 54.2093C116.452 54.7213 117.583 55.5746 118.223 56.7693C118.905 57.9639 119.247 59.5639 119.247 61.5693V71.0413H108.047C104.207 71.0413 101.071 70.9559 98.6388 70.7853C96.2495 70.6146 94.6495 70.5079 93.8388 70.4653V73.9853C93.7961 75.6919 94.8201 76.5453 96.9108 76.5453H100.175C102.479 76.5453 104.719 76.5239 106.895 76.4813C109.113 76.3959 111.14 76.3106 112.975 76.2253C114.809 76.0973 116.281 75.9906 117.391 75.9053L119.951 80.0653C119.951 81.3879 115.748 82.0493 107.343 82.0493H94.4788ZM93.8388 65.5373H111.439V61.4413C111.439 60.5879 111.332 59.9906 111.119 59.6493C110.948 59.3079 110.393 59.0946 109.455 59.0093C108.516 58.9239 106.916 58.8813 104.655 58.8813H96.9108C94.8628 58.8813 93.8388 59.7346 93.8388 61.4413V65.5373ZM123.158 82.0493L124.438 79.4893L135.51 67.6493L123.158 53.3773H132.886L140.694 63.2973H141.334L149.27 53.3773H158.998L157.974 55.4253L146.262 67.6493L158.998 82.0493H149.206L141.334 72.4493H140.694L132.886 82.0493H123.158ZM171.931 82.0493C169.841 82.0493 168.198 81.7719 167.003 81.2173C165.851 80.6626 165.019 79.9586 164.507 79.1053C164.038 78.2519 163.739 77.3559 163.611 76.4173C163.526 75.4786 163.483 74.6253 163.483 73.8573V53.3773H171.291V73.9853C171.249 74.9239 171.547 75.5853 172.187 75.9693C172.87 76.3533 173.595 76.5453 174.363 76.5453H187.035C187.974 76.5453 188.529 76.4599 188.699 76.2893C188.87 76.1186 188.955 75.5639 188.955 74.6253V53.3773H196.763V82.0493H191.515L189.083 80.7693C187.377 81.1106 185.35 81.4093 183.003 81.6653C180.699 81.9213 178.097 82.0493 175.195 82.0493H171.931ZM212.229 82.0493C210.095 82.0493 208.453 81.7719 207.301 81.2173C206.149 80.6626 205.317 79.9586 204.805 79.1053C204.335 78.2519 204.037 77.3559 203.909 76.4173C203.823 75.4786 203.781 74.6253 203.781 73.8573V61.5693C203.781 60.9293 203.823 60.1613 203.909 59.2653C204.037 58.3266 204.335 57.4093 204.805 56.5133C205.317 55.6173 206.149 54.8706 207.301 54.2733C208.495 53.6759 210.138 53.3773 212.229 53.3773H215.493C219.418 53.3773 222.575 53.4626 224.965 53.6333C227.397 53.7613 229.253 53.9106 230.533 54.0813V41.4733H238.341V82.0493H233.093L230.597 80.7693C228.805 81.0679 226.65 81.3666 224.133 81.6653C221.615 81.9213 218.714 82.0493 215.429 82.0493H212.229ZM214.661 76.5453H228.549C229.445 76.5453 229.999 76.4386 230.213 76.2253C230.426 76.0119 230.533 75.4786 230.533 74.6253V59.3293C229.082 59.2439 227.247 59.1586 225.029 59.0733C222.81 58.9453 220.442 58.8813 217.925 58.8813H214.661C212.613 58.8813 211.589 59.7346 211.589 61.4413V73.9853C211.589 75.6919 212.613 76.5453 214.661 76.5453Z" fill="#1F1F1F"/>
</svg>
